# xmcd CD database file
# Copyright (C) 1993-1998 Ti Kan
# 
# Track frame offsets:
#     150
#     19682
#     33602
#     52252
#     70955
#     89280
#     106460
#     126867
#     142420
#     161465
# 
# Disc length: 2382 seconds
# 
# Revision: 1
# Processed by: cddbd v1.4b41PL1 Copyright (c) Steve Scherf et al.
# Submitted via: DiscPlay 4.0.1
# 
DISCID=93094c0a
DTITLE=System4 - Beyond Sex
DYEAR=1900
DGENRE=
TTITLE0=  
TTITLE1=
TTITLE2=Katrina
TTITLE3=...       
TTITLE4=     
TTITLE5=
TTITLE6=
TTITLE7= 
TTITLE8=Under the Moon
TTITLE9=
EXTD=
EXTT0=
EXTT1=
EXTT2=
EXTT3=
EXTT4=
EXTT5=
EXTT6=
EXTT7=
EXTT8=
EXTT9=
PLAYORDER=
